<?xml version="1.0" encoding="UTF-8" standalone="no"?>
<!-- Uploaded to: SVG Repo, www.svgrepo.com, Generator: SVG Repo Mixer Tools -->

<svg
   width="800"
   height="800"
   viewBox="0 0 24 24"
   fill="none"
   version="1.1"
   id="svg1"
   xmlns="http://www.w3.org/2000/svg"
   xmlns:svg="http://www.w3.org/2000/svg">
  <defs
     id="defs1" />
  <path
     fill-rule="evenodd"
     clip-rule="evenodd"
     d="M 6,4 C 4.34315,4 3,5.34315 3,7 v 10 c 0,1.6569 1.34315,3 3,3 h 12 c 1.6569,0 3,-1.3431 3,-3 V 7 C 21,5.34315 19.6569,4 18,4 Z M 5,7 C 5,6.44772 5.44772,6 6,6 H 9 V 18 H 6 C 5.44772,18 5,17.5523 5,17 Z m 6,11 h 7 c 0.5523,0 1,-0.4477 1,-1 V 7 C 19,6.44772 18.5523,6 18,6 h -7 z"
     fill="#000000"
     id="path1"
     style="fill:#ffffff" />
</svg>
