<?xml version="1.0" encoding="UTF-8" standalone="no"?>
<!-- Uploaded to: SVG Repo, www.svgrepo.com, Generator: SVG Repo Mixer Tools -->

<svg
   width="800px"
   height="800px"
   viewBox="-3 0 32 32"
   version="1.1"
   id="svg1"
   sodipodi:docname="trash-svgrepo-com.svg"
   inkscape:export-filename="trash-svgrepo-com-white.png"
   inkscape:export-xdpi="96"
   inkscape:export-ydpi="96"
   inkscape:version="1.4 (e7c3feb100, 2024-10-09)"
   xmlns:inkscape="http://www.inkscape.org/namespaces/inkscape"
   xmlns:sodipodi="http://sodipodi.sourceforge.net/DTD/sodipodi-0.dtd"
   xmlns="http://www.w3.org/2000/svg"
   xmlns:svg="http://www.w3.org/2000/svg"
   xmlns:rdf="http://www.w3.org/1999/02/22-rdf-syntax-ns#"
   xmlns:cc="http://creativecommons.org/ns#"
   xmlns:dc="http://purl.org/dc/elements/1.1/"
   xmlns:sketch="http://www.bohemiancoding.com/sketch/ns">
  <sodipodi:namedview
     id="namedview1"
     pagecolor="#505050"
     bordercolor="#ffffff"
     borderopacity="1"
     inkscape:showpageshadow="0"
     inkscape:pageopacity="0"
     inkscape:pagecheckerboard="1"
     inkscape:deskcolor="#505050"
     inkscape:zoom="1.4766577"
     inkscape:cx="401.24398"
     inkscape:cy="398.53516"
     inkscape:window-width="2552"
     inkscape:window-height="1396"
     inkscape:window-x="0"
     inkscape:window-y="0"
     inkscape:window-maximized="0"
     inkscape:current-layer="svg1" />
  <title
     id="title1">trash</title>
  <desc
     id="desc1">Created with Sketch Beta.</desc>
  <defs
     id="defs1" />
  <g
     id="Page-1"
     stroke="none"
     stroke-width="1"
     fill="none"
     fill-rule="evenodd"
     sketch:type="MSPage"
     style="fill:#000000">
    <g
       id="Icon-Set-Filled"
       sketch:type="MSLayerGroup"
       transform="translate(-261.000000, -205.000000)"
       fill="#000000"
       style="fill:#000000">
      <path
         d="M268,220 C268,219.448 268.448,219 269,219 C269.552,219 270,219.448 270,220 L270,232 C270,232.553 269.552,233 269,233 C268.448,233 268,232.553 268,232 L268,220 L268,220 Z M273,220 C273,219.448 273.448,219 274,219 C274.552,219 275,219.448 275,220 L275,232 C275,232.553 274.552,233 274,233 C273.448,233 273,232.553 273,232 L273,220 L273,220 Z M278,220 C278,219.448 278.448,219 279,219 C279.552,219 280,219.448 280,220 L280,232 C280,232.553 279.552,233 279,233 C278.448,233 278,232.553 278,232 L278,220 L278,220 Z M263,233 C263,235.209 264.791,237 267,237 L281,237 C283.209,237 285,235.209 285,233 L285,217 L263,217 L263,233 L263,233 Z M277,209 L271,209 L271,208 C271,207.447 271.448,207 272,207 L276,207 C276.552,207 277,207.447 277,208 L277,209 L277,209 Z M285,209 L279,209 L279,207 C279,205.896 278.104,205 277,205 L271,205 C269.896,205 269,205.896 269,207 L269,209 L263,209 C261.896,209 261,209.896 261,211 L261,213 C261,214.104 261.895,214.999 262.999,215 L285.002,215 C286.105,214.999 287,214.104 287,213 L287,211 C287,209.896 286.104,209 285,209 L285,209 Z"
         id="trash"
         sketch:type="MSShapeGroup"
         style="fill:#000000" />
    </g>
  </g>
  <metadata
     id="metadata1">
    <rdf:RDF>
      <cc:Work
         rdf:about="">
        <dc:title>trash</dc:title>
      </cc:Work>
    </rdf:RDF>
  </metadata>
</svg>
